# xmcd
#
# Track frame offsets: 
#        150
#        13020
#        32396
#        48091
#        64253
#        84265
#        104199
#        117584
#        131917
#        148988
#        159913
#        173703
#        201164
#        219314
#        234639
#
# Disc length: 3436 seconds
#
# Revision: 0
# Processed by: cddbd v1.5.2PL0 Copyright (c) Steve Scherf et al.
# Submitted via: ExactAudioCopyFreeDBPlugin 1.0
#
DISCID=d40d6a0f
DTITLE=Nacirema - The N Word
DYEAR=2001
DGENRE=Hip-Hop
TTITLE0=Intro
TTITLE1=Critique
TTITLE2=3rd Eye
TTITLE3=Got What It Takes
TTITLE4=The Light
TTITLE5=Private Property
TTITLE6=Piece of Paper
TTITLE7=Club Improv
TTITLE8=Beautiful Place
TTITLE9=Multiple Personalities
TTITLE10=Ugly Chicks
TTITLE11=Cultureyes
TTITLE12=Nacirema
TTITLE13=Hit and Gone
TTITLE14=The N Word
EXTD=
EXTT0=
EXTT1=
EXTT2=
EXTT3=
EXTT4=
EXTT5=
EXTT6=
EXTT7=
EXTT8=
EXTT9=
EXTT10=
EXTT11=
EXTT12=
EXTT13=
EXTT14=
PLAYORDER=
